<svg width="12" height="21" viewBox="0 0 12 21" fill="none" xmlns="http://www.w3.org/2000/svg">
<g clip-path="url(#clip0_69_706)">
<rect x="3.05176e-05" y="0.398804" width="12" height="5" fill="#F6F8FA"/>
<mask id="path-3-inside-1_69_706" fill="white">
<path d="M3.05176e-05 5.3988H12V10.3988H3.05176e-05V5.3988Z"/>
</mask>
<path d="M3.05176e-05 5.3988H12V10.3988H3.05176e-05V5.3988Z" fill="#FFE37F"/>
<path d="M3.05176e-05 5.6988H12V5.0988H3.05176e-05V5.6988Z" fill="#F6F8FA" mask="url(#path-3-inside-1_69_706)"/>
<mask id="path-5-inside-2_69_706" fill="white">
<path d="M3.05176e-05 10.3988H12V15.3988H3.05176e-05V10.3988Z"/>
</mask>
<path d="M3.05176e-05 10.3988H12V15.3988H3.05176e-05V10.3988Z" fill="#FFE37F"/>
<path d="M3.05176e-05 10.6988H12V10.0988H3.05176e-05V10.6988Z" fill="#F6F8FA" mask="url(#path-5-inside-2_69_706)"/>
<mask id="path-7-inside-3_69_706" fill="white">
<path d="M3.05176e-05 15.3988H12V20.3988H3.05176e-05V15.3988Z"/>
</mask>
<path d="M3.05176e-05 15.3988H12V20.3988H3.05176e-05V15.3988Z" fill="#FFE37F"/>
<path d="M3.05176e-05 15.6988H12V15.0988H3.05176e-05V15.6988Z" fill="#F6F8FA" mask="url(#path-7-inside-3_69_706)"/>
</g>
<defs>
<clipPath id="clip0_69_706">
<rect x="3.05176e-05" y="0.398804" width="12" height="20" rx="2" fill="white"/>
</clipPath>
</defs>
</svg>
