<svg width="66" height="65" viewBox="0 0 66 65" fill="none" xmlns="http://www.w3.org/2000/svg">
<path d="M46.1257 15.5454L34.09 13.4224C31.8423 13.0227 30.0054 13.316 28.6267 14.2822C27.2462 15.2483 26.3461 16.8782 25.9501 19.1222L25.6954 20.5632L19.3683 21.676C14.84 22.4809 12.8728 25.3005 13.6776 29.827L16.5086 45.8761C16.8973 48.1201 17.7918 49.7463 19.1687 50.7143C20.1495 51.4018 21.3593 51.7464 22.7856 51.7464C23.3668 51.7464 23.9864 51.6876 24.6409 51.5721L36.6842 49.4528C40.1291 48.8276 41.5537 47.1153 42.122 45.5533C42.3145 45.5644 42.529 45.6084 42.716 45.6084C46.159 45.6084 48.3168 43.6063 49.0006 39.7343L51.8294 23.6854C52.625 19.1589 50.6541 16.3447 46.1257 15.5454ZM36.3597 47.6508L24.3204 49.7701C22.5659 50.0818 21.1907 49.8929 20.2227 49.2164C19.2584 48.5381 18.6167 47.3115 18.3142 45.5625L15.4819 29.5099C14.8622 26.0192 16.2004 24.1033 19.6892 23.4836L25.358 22.4864L23.1213 35.173C22.322 39.7014 24.2945 42.5173 28.821 43.3148L40.1934 45.3205C39.5792 46.5103 38.3379 47.2914 36.3597 47.6508ZM50.0216 23.3682L47.1928 39.4172C46.575 42.9079 44.6592 44.2462 41.174 43.6321L29.1383 41.509C25.6476 40.893 24.3092 38.9808 24.9233 35.4902L27.7539 19.4412C28.0619 17.6922 28.7092 16.4621 29.6772 15.7837C30.3445 15.3181 31.2046 15.0834 32.2459 15.0834C32.7171 15.0834 33.2264 15.131 33.7709 15.2282L45.807 17.3512C49.2959 17.9672 50.6357 19.8793 50.0216 23.3682ZM44.3936 30.6502C44.3147 31.0957 43.9279 31.4073 43.4934 31.4073C43.4403 31.4073 43.385 31.4037 43.3319 31.3927L31.2961 29.2697C30.7993 29.1817 30.4656 28.7069 30.5536 28.2082C30.6416 27.7077 31.1276 27.3759 31.6153 27.4657L43.651 29.5887C44.1478 29.6767 44.4797 30.1516 44.3936 30.6502ZM45.6768 24.6717C45.598 25.1172 45.2112 25.4289 44.7767 25.4289C44.7235 25.4289 44.6683 25.4252 44.6151 25.4142L32.5794 23.2912C32.0826 23.2032 31.7488 22.7284 31.8368 22.2297C31.9248 21.7292 32.4145 21.3955 32.8985 21.4872L44.9342 23.6102C45.4311 23.6982 45.7648 24.173 45.6768 24.6717ZM38.8148 35.8972C38.7359 36.3427 38.3487 36.6543 37.9142 36.6543C37.8611 36.6543 37.8063 36.6507 37.7531 36.6397L30.2291 35.3124C29.7323 35.2244 29.3985 34.7496 29.4865 34.2509C29.5764 33.7504 30.0532 33.4167 30.5482 33.5083L38.0722 34.8357C38.5691 34.9218 38.9009 35.3986 38.8148 35.8972Z" fill="#FFFFFF"/>
</svg>
