<svg width="58" height="57" viewBox="0 0 58 57" fill="none" xmlns="http://www.w3.org/2000/svg">
<g id="Clip path group">
<mask id="mask0_1_13844" style="mask-type:luminance" maskUnits="userSpaceOnUse" x="0" y="0" width="58" height="57">
<g id="clippath-294">
<path id="Vector" d="M57.1299 28.3799C57.1299 44.0399 44.44 56.73 28.78 56.73C13.12 56.73 0.439941 44.0399 0.439941 28.3799C0.439941 12.7199 13.13 0.0400391 28.78 0.0400391C44.43 0.0400391 57.1299 12.7299 57.1299 28.3799Z" fill="white"/>
</g>
</mask>
<g mask="url(#mask0_1_13844)">
<g id="Group">
<path id="Vector_2" d="M-3.21997 0.0400391H21.76V16.6899L-3.21997 0.0400391ZM35.8 0.0400391H60.77L35.8 16.6899V0.0400391ZM71.29 7.05005V19.02H53.3401L71.29 7.05005ZM71.29 37.75V49.72L53.3401 37.75H71.29ZM60.77 56.73H35.8V40.0801L60.77 56.73ZM21.75 56.73H-3.22998L21.75 40.0801V56.73ZM-13.75 49.72V37.75H4.19995L-13.75 49.72ZM-13.75 19.02V7.05005L4.19995 19.02H-13.75Z" fill="#0437A0"/>
<path id="Vector_3" d="M71.3 49.72L53.3501 37.75H71.3V19.02H53.3501L71.3 7.05005V0.0400391H60.78L35.8 16.6899V0.0400391H28.78H21.76V16.6899L-3.21997 0.0400391H-13.74V7.05005L4.20996 19.02H-13.74V37.75H4.20996L-13.74 49.72V56.73H-3.21997L21.76 40.0801V56.73H28.78H35.8V40.0801L60.78 56.73H71.3V49.72Z" fill="#F4F4F5"/>
<path id="Vector_4" d="M33.1599 0.0400391V22.54H71.29V34.23H33.1599V56.73H24.3899V34.23H-13.74V22.54H24.3899V0.0400391H33.1599ZM71.29 54.1001L46.76 37.75H38.8701L67.3401 56.73H71.28V54.1001H71.29ZM46.76 19.02L71.29 2.66992V0.0400391H67.3501L38.8799 19.02H46.77H46.76ZM18.6599 19.02L-9.81006 0.0400391H-13.75V2.66992L10.78 19.02H18.6699H18.6599ZM10.77 37.75L-13.76 54.1001V56.73H-9.82007L18.6499 37.75H10.76H10.77Z" fill="#F90805"/>
</g>
</g>
</g>
</svg>
