<svg width="65" height="65" viewBox="0 0 65 65" fill="none" xmlns="http://www.w3.org/2000/svg">
<g clip-path="url(#clip0_222_817)">
<path d="M51.5938 40.5C49.1642 40.5 47.1875 38.45 47.1875 35.9287V35.07C47.1875 32.55 49.1642 30.4987 51.5938 30.4987C54.0233 30.4987 56 32.5487 56 35.07V35.9287C56 38.4487 54.0233 40.5 51.5938 40.5ZM51.5938 32.5C50.2437 32.5 49.1458 33.6537 49.1458 35.0712V35.93C49.1458 37.3475 50.2437 38.5012 51.5938 38.5012C52.9438 38.5012 54.0417 37.3475 54.0417 35.93V35.0712C54.0417 33.6537 52.9438 32.5 51.5938 32.5Z" fill="#FFFFFF"/>
<path d="M24.1367 38.0837C23.8601 38.0837 23.5847 37.965 23.3914 37.7325L18.8211 32.255C17.1112 32.5425 15.3806 32.5187 13.8898 32.185C11.7846 31.7125 10.1469 30.625 9.15428 29.0387C8.86298 28.5737 8.99639 27.955 9.4517 27.6575C9.90701 27.36 10.5129 27.4962 10.8042 27.9612C12.4137 30.5337 16.2263 30.7687 19.0022 30.1862C19.3523 30.1137 19.7134 30.24 19.9447 30.5175L24.8809 36.4337C25.2322 36.8537 25.182 37.485 24.7708 37.8437C24.5859 38.0037 24.3607 38.0825 24.1367 38.0825V38.0837Z" fill="#FFFFFF"/>
<path d="M29.6041 39.8337C29.5074 39.8337 29.4083 39.8187 29.3103 39.7875L23.8429 38.0375C23.3264 37.8725 23.04 37.3112 23.2016 36.7837C23.3631 36.2562 23.9127 35.9637 24.4292 36.1287L29.8966 37.8787C30.4131 38.0437 30.6995 38.605 30.538 39.1325C30.407 39.56 30.0202 39.8337 29.6041 39.8337Z" fill="#FFFFFF"/>
<path d="M26.8049 50.685C26.6996 50.685 26.5956 50.6812 26.4903 50.6725L18.1307 49.975C17.5921 49.93 17.1907 49.4475 17.2348 48.8975C17.2788 48.3475 17.7525 47.9387 18.2898 47.9825L26.6494 48.68C27.1831 48.7237 27.7167 48.5412 28.1157 48.1762L32.9798 43.7262C33.1181 43.6 33.2894 43.515 33.473 43.485L41.4055 42.1412C41.9391 42.05 42.4434 42.4187 42.5315 42.9637C42.6196 43.5087 42.2598 44.0237 41.7262 44.1137L34.074 45.41L29.4217 49.6662C28.7032 50.3237 27.7632 50.6875 26.8049 50.6875V50.685Z" fill="#FFFFFF"/>
<path d="M9.98037 54.5C9.61931 54.5 9.2717 54.295 9.10035 53.9412C8.86168 53.445 9.06241 52.8462 9.54709 52.6025C12.9521 50.8937 14.9044 47.3587 15.5408 44.85C15.6485 44.4237 16.0169 44.12 16.4478 44.1025L25.4769 43.7187C25.8563 42.9025 26.5809 41.3512 27.095 40.3025C27.7792 38.905 28.855 38 30.292 37.6137C32.3458 37.0612 40.5769 34.815 40.6601 34.7925C40.665 34.7912 40.6699 34.79 40.6736 34.7887C43.4238 34.0825 45.4801 35.245 46.174 37.8975C46.316 38.44 47.0027 40.5112 47.376 41.6237L52.7761 44.5075C52.7761 44.5075 52.7846 44.5125 52.7895 44.515C54.3366 45.3712 54.6047 46.8662 54.1836 47.9675C53.7063 49.2162 52.4652 49.8925 51.2302 49.5737L43.4324 47.5C43.1913 47.4362 42.9832 47.2812 42.851 47.0662L39.6883 41.9462C39.3994 41.4787 39.5365 40.8612 39.9943 40.5675C40.452 40.2725 41.0567 40.4125 41.3443 40.88L44.3014 45.6662L51.7174 47.6387C52.0699 47.73 52.2926 47.42 52.3599 47.2425C52.4995 46.8775 52.3232 46.535 51.863 46.2787L46.1239 43.215C45.9023 43.0962 45.7334 42.8962 45.6514 42.655C45.6037 42.515 44.4923 39.2225 44.2818 38.4175C44.0199 37.4175 43.4116 36.155 41.157 36.73C40.8682 36.8087 32.8207 39.0037 30.7901 39.55C29.8966 39.79 29.2797 40.3137 28.8465 41.1987C28.1353 42.6512 27.0056 45.0962 26.9946 45.1212C26.8392 45.4575 26.5136 45.6787 26.1501 45.6937L17.2311 46.0725C16.3033 49.0112 14.099 52.5475 10.41 54.3987C10.2705 54.4687 10.1236 54.5012 9.97915 54.5012L9.98037 54.5Z" fill="#FFFFFF"/>
<path d="M23.346 42.7887C23.1979 42.7887 23.0486 42.755 22.9078 42.6825L20.8748 41.6412C20.1967 41.295 19.6362 40.7587 19.2531 40.0912L16.3682 35.0737C16.094 34.5975 16.2507 33.985 16.717 33.705C17.1834 33.425 17.7831 33.585 18.0573 34.0612L20.9421 39.0787C21.1343 39.4125 21.4146 39.68 21.7536 39.8537L23.7866 40.895C24.2701 41.1425 24.4659 41.7437 24.2236 42.2375C24.0522 42.5875 23.7058 42.79 23.3472 42.79L23.346 42.7887Z" fill="#FFFFFF"/>
<path d="M32.5868 38.9762C32.0776 38.9762 31.5746 38.84 31.1217 38.5725C30.4412 38.1712 29.9553 37.5225 29.7521 36.7475L29.3531 35.2162C28.937 33.6212 29.8684 31.9762 31.4289 31.5475L39.6233 29.2962C41.3969 28.8087 43.245 29.6287 44.0149 31.2462C44.5082 32.2812 44.5265 33.4687 44.0651 34.5025C43.6037 35.5362 42.7249 36.2975 41.6527 36.5925L33.3555 38.8725C33.1009 38.9425 32.8438 38.9762 32.5868 38.9762ZM40.6417 31.1587C40.4728 31.1587 40.3014 31.1812 40.1325 31.2275L31.9381 33.4787C31.4179 33.6212 31.1083 34.17 31.2466 34.7012L31.6456 36.2325C31.7129 36.4912 31.8757 36.7075 32.1021 36.8412C32.3286 36.975 32.5929 37.01 32.8463 36.9412L41.1435 34.6612C41.6502 34.5225 42.0651 34.1625 42.283 33.6737C42.5045 33.1775 42.4935 32.6262 42.2536 32.1225C41.9685 31.525 41.3259 31.16 40.6405 31.16L40.6417 31.1587Z" fill="#FFFFFF"/>
<path d="M47.6771 25.5C45.7873 25.5 44.25 23.93 44.25 22C44.25 20.07 45.7873 18.5 47.6771 18.5C48.2181 18.5 48.6562 18.9475 48.6562 19.5C48.6562 20.0525 48.2181 20.5 47.6771 20.5C46.8668 20.5 46.2083 21.1725 46.2083 22C46.2083 22.8275 46.8668 23.5 47.6771 23.5C48.4873 23.5 49.1458 22.8275 49.1458 22C49.1458 21.4475 49.584 21 50.125 21C50.666 21 51.1042 21.4475 51.1042 22C51.1042 23.93 49.5669 25.5 47.6771 25.5Z" fill="#FFFFFF"/>
<path d="M40.3334 18.5C38.1731 18.5 36.4167 16.7062 36.4167 14.5C36.4167 12.2937 38.1744 10.5 40.3334 10.5C42.4925 10.5 44.2501 12.2937 44.2501 14.5C44.2501 16.7062 42.4937 18.5 40.3334 18.5ZM40.3334 12.5C39.2539 12.5 38.3751 13.3975 38.3751 14.5C38.3751 15.6025 39.2539 16.5 40.3334 16.5C41.4129 16.5 42.2917 15.6025 42.2917 14.5C42.2917 13.3975 41.4129 12.5 40.3334 12.5Z" fill="#FFFFFF"/>
<path d="M41.3125 23.5H40.8229C40.2819 23.5 39.8438 23.0525 39.8438 22.5C39.8438 21.9475 40.2819 21.5 40.8229 21.5H41.3125C41.8535 21.5 42.2917 21.9475 42.2917 22.5C42.2917 23.0525 41.8535 23.5 41.3125 23.5Z" fill="#FFFFFF"/>
<path d="M49.1458 15.5H48.6562C48.1152 15.5 47.677 15.0525 47.677 14.5C47.677 13.9475 48.1152 13.5 48.6562 13.5H49.1458C49.6867 13.5 50.1249 13.9475 50.1249 14.5C50.1249 15.0525 49.6867 15.5 49.1458 15.5Z" fill="#FFFFFF"/>
<path d="M47.1875 29.5H46.6979C46.1569 29.5 45.7188 29.0525 45.7188 28.5C45.7188 27.9475 46.1569 27.5 46.6979 27.5H47.1875C47.7285 27.5 48.1667 27.9475 48.1667 28.5C48.1667 29.0525 47.7285 29.5 47.1875 29.5Z" fill="#FFFFFF"/>
</g>
<defs>
<clipPath id="clip0_222_817">
<rect width="47" height="44" fill="white" transform="translate(9 10.5)"/>
</clipPath>
</defs>
</svg>
