<svg width="65" height="65" viewBox="0 0 65 65" fill="none" xmlns="http://www.w3.org/2000/svg">
<path fill-rule="evenodd" clip-rule="evenodd" d="M35.448 47.6107L32.8186 21.8105H24.6785L22.0487 47.6107H24.68V44.5356C24.68 40.9628 29.0498 39.1082 31.6225 41.6721C32.3593 42.4062 32.8166 43.4196 32.8166 44.5356V47.6107H35.448ZM28.7486 36.2382C29.4127 36.2382 29.9511 36.7747 29.9511 37.4364C29.9511 38.0982 29.4127 38.6347 28.7486 38.6347C28.0844 38.6347 27.546 38.0982 27.546 37.4364C27.546 36.7747 28.0844 36.2382 28.7486 36.2382ZM28.7486 30.7538C29.4127 30.7538 29.9511 31.2903 29.9511 31.9521C29.9511 32.6138 29.4127 33.1503 28.7486 33.1503C28.0844 33.1503 27.546 32.6138 27.546 31.9521C27.546 31.2903 28.0844 30.7538 28.7486 30.7538ZM28.7486 25.1981C29.4127 25.1981 29.9511 25.7346 29.9511 26.3963C29.9511 27.0581 29.4127 27.5941 28.7486 27.5941C28.0844 27.5941 27.546 27.0581 27.546 26.3963C27.546 25.7346 28.0844 25.1981 28.7486 25.1981ZM36.488 24.5358C35.2521 24.3055 35.6046 22.4351 36.8394 22.6659L43.5881 23.9295C44.8244 24.1609 44.472 26.0308 43.2366 25.7999L36.488 24.5358ZM36.8394 18.6938C35.6041 18.9246 35.2521 17.0547 36.488 16.8239L43.2366 15.5598C44.472 15.329 44.8244 17.1994 43.5881 17.4302L36.8394 18.6938ZM29.7055 17.7101V19.9029H32.6729V17.7101H29.7055ZM27.7911 19.9029V17.7101H24.8237V19.9029H27.7911ZM34.5462 16.4787C34.6332 16.764 34.5874 19.3992 34.5874 19.9029H36.0997C37.3599 19.9029 37.3599 21.8105 36.0997 21.8105H34.7371L37.3664 47.6107H46.7961C48.281 47.6107 49.5 48.8218 49.5 50.3054V52.0465C49.5 52.573 49.0715 53 48.543 53H16.4748C15.9463 53 15.5178 52.573 15.5178 52.0465C15.5178 50.5892 15.3105 49.3984 16.3112 48.4013L16.3132 48.4033C16.8049 47.9144 17.4805 47.6107 18.2217 47.6107H20.1302L22.7601 21.8105H21.3974C20.1372 21.8105 20.1372 19.9029 21.3974 19.9029H22.9092C22.9092 19.3506 22.861 16.8185 22.9505 16.4787C23.3432 14.7108 24.414 13.464 25.7613 12.7403C29.0369 10.9804 33.6424 12.4099 34.5462 16.4787ZM26.6661 14.4166C26.0844 14.7291 25.5808 15.1913 25.2293 15.803C27.5753 15.803 29.9213 15.803 32.2673 15.803C31.1622 13.8786 28.5084 13.4269 26.6661 14.4166ZM26.5945 47.6107H30.9022V44.5356C30.9022 42.6568 28.5984 41.6557 27.2283 43.0209C26.8371 43.4102 26.5945 43.9467 26.5945 44.5356V47.6107ZM46.7961 49.5183H18.2217L17.6629 49.7486L17.6649 49.7501C17.3453 50.0686 17.4323 50.5496 17.4323 51.0924H47.5855C47.5855 50.6144 47.7372 49.5183 46.7961 49.5183Z" fill="#40AAD3"/>
</svg>
