<svg width="66" height="65" viewBox="0 0 66 65" fill="none" xmlns="http://www.w3.org/2000/svg">
<path d="M40.8986 28.0092C41.0995 27.9047 41.1987 27.6837 41.1387 27.4773L40.7734 26.1949C40.7134 25.9909 40.5151 25.8476 40.2855 25.8476C40.2828 25.8476 40.2802 25.8476 40.2776 25.8476L38.9991 25.867L38.6547 25.3108L39.3122 24.2834C39.4322 24.0988 39.4009 23.8632 39.2365 23.7102L38.2346 22.7727C38.0702 22.6197 37.8171 22.5906 37.6214 22.7023L36.523 23.3192L35.928 22.9962L35.9489 21.8012C35.9515 21.585 35.7976 21.3956 35.5758 21.3397L34.206 20.9948C33.9816 20.939 33.7467 21.0337 33.6345 21.2207L33.0135 22.2675H32.3273L31.7037 21.2207C31.5941 21.0337 31.3593 20.939 31.1349 20.9948L29.7651 21.3397C29.5433 21.3956 29.3893 21.585 29.3919 21.8012L29.4128 22.9962L28.8179 23.3192L27.7194 22.7023C27.5237 22.5906 27.2706 22.6197 27.1063 22.7727L26.1043 23.7102C25.9399 23.8632 25.9086 24.0988 26.0286 24.2834L26.6862 25.3108L26.3418 25.867L25.0632 25.8476C24.831 25.8451 24.6275 25.9884 24.5675 26.1949L24.2022 27.4773C24.1422 27.6837 24.2413 27.9047 24.4422 28.0092L25.5616 28.5897V29.2333L24.4422 29.8138C24.2413 29.9182 24.1422 30.1368 24.2022 30.3457L24.5675 31.6256C24.6275 31.8345 24.831 31.9778 25.0632 31.9754L26.3418 31.9559L26.6862 32.5121L26.0286 33.5371C25.9086 33.7217 25.9399 33.9597 26.1043 34.1127L27.1063 35.0502C27.2706 35.2008 27.5237 35.23 27.7194 35.1207L28.8179 34.5037L29.4128 34.8243L29.3919 36.0217C29.3893 36.2379 29.5433 36.4273 29.7651 36.4832L31.1349 36.8281C31.3593 36.884 31.5941 36.7892 31.7037 36.6022L32.3273 35.5554H33.0135L33.6345 36.6022C33.7259 36.7528 33.8955 36.8427 34.0755 36.8427C34.1172 36.8427 34.1616 36.8378 34.206 36.8281L35.5758 36.4832C35.7976 36.4273 35.9515 36.2379 35.9489 36.0217L35.928 34.8243L36.523 34.5037L37.6214 35.1207C37.8171 35.23 38.0702 35.2008 38.2346 35.0502L39.2365 34.1127C39.4009 33.9597 39.4322 33.7217 39.3122 33.5371L38.6547 32.5121L38.9991 31.9559L40.2776 31.9754C40.5098 31.9778 40.7134 31.8345 40.7734 31.6256L41.1387 30.3457C41.1987 30.1368 41.0995 29.9182 40.8986 29.8138L39.7793 29.2333V28.5897L40.8986 28.0092ZM35.3775 31.441C34.6547 32.1187 33.6919 32.4903 32.6691 32.4903C31.6463 32.4903 30.6861 32.1187 29.9634 31.441C29.238 30.7658 28.8414 29.8672 28.8414 28.9103C28.8414 27.9557 29.238 27.0571 29.9634 26.3795C30.6861 25.7043 31.6463 25.3327 32.6691 25.3327C33.6919 25.3327 34.6547 25.7043 35.3775 26.3795C36.1003 27.0571 36.4995 27.9557 36.4995 28.9103C36.4995 29.8672 36.1003 30.7658 35.3775 31.441Z" fill="#40AAD3"/>
<path d="M45.1179 29.0827C45.1179 27.3655 44.763 25.7018 44.0637 24.1425C43.7271 23.392 43.3123 22.6707 42.8296 22.0004C42.3495 21.3349 41.7989 20.7131 41.1962 20.1521C40.0534 19.0931 38.7383 18.2673 37.285 17.6941C35.7795 17.1015 34.1826 16.8076 32.544 16.8198C29.3138 16.8465 26.2662 18.0754 23.9597 20.2783C23.3674 20.8467 22.8273 21.4757 22.3602 22.1461C21.8905 22.8237 21.4861 23.5499 21.1626 24.3053C20.492 25.8743 20.1632 27.5404 20.1867 29.2624C20.2102 30.7586 20.5024 32.2158 21.0582 33.5954C21.5957 34.9312 22.3628 36.1577 23.3387 37.2361C24.9303 38.9946 25.807 41.263 25.807 43.6287V45.6324C25.807 46.5894 26.1879 47.4904 26.8742 48.1705C27.216 48.5057 27.6126 48.7704 28.0561 48.955C28.518 49.1493 29.0111 49.2465 29.5173 49.2465H35.7847C36.2935 49.2465 36.784 49.1493 37.2484 48.955C37.692 48.7704 38.0886 48.5057 38.4278 48.1705C39.1166 47.4904 39.495 46.5894 39.495 45.6324V43.6287C39.495 41.2703 40.3769 38.9946 41.9764 37.2215C42.9679 36.1213 43.7428 34.8729 44.2803 33.5079C44.8361 32.0968 45.1179 30.608 45.1179 29.0827ZM42.4434 32.8765C41.9842 34.0398 41.3241 35.1061 40.4787 36.0412C38.5818 38.1445 37.5381 40.838 37.5381 43.6287V45.6324C37.5381 46.6161 36.7527 47.4176 35.7847 47.4176H29.5173C28.5519 47.4176 27.7665 46.6161 27.7665 45.6324V43.6287C27.7665 40.8331 26.7254 38.1421 24.8338 36.0533C24.004 35.1352 23.3491 34.0908 22.8899 32.9517C22.415 31.7689 22.1645 30.5205 22.1462 29.2381C22.1254 27.759 22.4046 26.3284 22.9812 24.9853C23.537 23.6908 24.3354 22.5371 25.3608 21.5583C27.2995 19.7052 29.8565 18.6729 32.5623 18.6511C32.591 18.6486 32.6223 18.6486 32.651 18.6486C35.3228 18.6486 37.8642 19.642 39.8185 21.4539C40.8596 22.4181 41.6815 23.5621 42.2582 24.8493C42.8557 26.1852 43.1583 27.6084 43.1583 29.0827C43.1583 30.3918 42.9183 31.6693 42.4434 32.8765Z" fill="#40AAD3"/>
<path d="M37.1466 50.847H28.1578C27.4351 50.847 26.8506 51.3911 26.8506 52.0663C26.8506 52.7391 27.4351 53.2855 28.1578 53.2855H37.1466C37.8667 53.2855 38.4512 52.7391 38.4512 52.0663C38.4512 51.3911 37.8667 50.847 37.1466 50.847Z" fill="#40AAD3"/>
<mask id="mask0_222_840" style="mask-type:luminance" maskUnits="userSpaceOnUse" x="26" y="54" width="13" height="3">
<path d="M26.6626 54.1064H38.6859V56.9821H26.6626V54.1064Z" fill="white"/>
</mask>
<g mask="url(#mask0_222_840)">
<path d="M37.1463 54.5363H28.1576C27.4348 54.5363 26.8503 55.0828 26.8503 55.758C26.8503 56.4308 27.4348 56.9773 28.1576 56.9773H37.1463C37.8665 56.9773 38.451 56.4308 38.451 55.758C38.451 55.0828 37.8665 54.5363 37.1463 54.5363Z" fill="#40AAD3"/>
</g>
<mask id="mask1_222_840" style="mask-type:luminance" maskUnits="userSpaceOnUse" x="46" y="27" width="9" height="3">
<path d="M46.7014 27.3704H54.5421V29.8575H46.7014V27.3704Z" fill="white"/>
</mask>
<g mask="url(#mask1_222_840)">
<path d="M53.5716 27.538L48.2723 27.4166C47.7321 27.402 47.2834 27.8027 47.2703 28.3079C47.2573 28.8131 47.6852 29.2333 48.2253 29.2454L53.5246 29.3669C53.5324 29.3669 53.5403 29.3669 53.5481 29.3669C54.0778 29.3669 54.5135 28.9734 54.5266 28.4755C54.5396 27.9703 54.1143 27.5501 53.5716 27.538Z" fill="#40AAD3"/>
</g>
<mask id="mask2_222_840" style="mask-type:luminance" maskUnits="userSpaceOnUse" x="10" y="27" width="9" height="3">
<path d="M10.9578 27.3704H18.6471V29.8575H10.9578V27.3704Z" fill="white"/>
</mask>
<g mask="url(#mask2_222_840)">
<path d="M17.2487 29.3669C17.7783 29.3669 18.2141 28.9734 18.2271 28.4755C18.2402 27.9703 17.8123 27.5501 17.2722 27.538L11.9728 27.4166C11.4327 27.402 10.9839 27.8027 10.9709 28.3079C10.9552 28.8131 11.3831 29.2333 11.9232 29.2454L17.2252 29.3669C17.233 29.3669 17.2408 29.3669 17.2487 29.3669Z" fill="#40AAD3"/>
</g>
<path d="M44.4653 37.9623C44.0922 37.5956 43.4712 37.581 43.0798 37.9308C42.6884 38.2781 42.6728 38.8586 43.0459 39.2229L46.7014 42.8126C46.8945 43.0021 47.1528 43.0968 47.4111 43.0968C47.6538 43.0968 47.8965 43.0142 48.0843 42.8442C48.4783 42.4969 48.4914 41.9164 48.1182 41.5521L44.4653 37.9623Z" fill="#40AAD3"/>
<path d="M21.032 18.8211C21.2251 19.0105 21.4834 19.1053 21.7418 19.1053C21.9844 19.1053 22.2271 19.0203 22.4175 18.8527C22.8089 18.5029 22.8246 17.9249 22.4515 17.5581L18.7959 13.9708C18.4228 13.6041 17.8044 13.5895 17.4131 13.9392C17.0191 14.2866 17.006 14.8646 17.3791 15.2314L21.032 18.8211Z" fill="#40AAD3"/>
<mask id="mask3_222_840" style="mask-type:luminance" maskUnits="userSpaceOnUse" x="31" y="8" width="4" height="7">
<path d="M31.3384 8.01785H34.0102V14.935H31.3384V8.01785Z" fill="white"/>
</mask>
<g mask="url(#mask3_222_840)">
<path d="M32.6586 14.8184C32.6665 14.8184 32.6743 14.8184 32.6847 14.8184C33.2144 14.8184 33.6475 14.4225 33.6632 13.9246L33.7936 8.97236C33.8067 8.46717 33.3788 8.04699 32.8387 8.03485C32.296 8.0227 31.8472 8.42102 31.8341 8.92621L31.7037 13.8809C31.6906 14.3861 32.1185 14.8063 32.6586 14.8184Z" fill="#40AAD3"/>
</g>
<path d="M43.6643 19.0178C43.9044 19.0178 44.1496 18.9352 44.3375 18.7652L48.1783 15.3503C48.5697 15.0006 48.5853 14.4226 48.2122 14.0558C47.8391 13.6891 47.2181 13.6745 46.8267 14.0242L42.9885 17.4415C42.5971 17.7888 42.5815 18.3693 42.9546 18.7336C43.1451 18.9231 43.4034 19.0178 43.6643 19.0178Z" fill="#40AAD3"/>
<path d="M21.1599 38.0158L17.3191 41.4331C16.9277 41.7804 16.912 42.3609 17.2852 42.7276C17.4782 42.9146 17.7366 43.0093 17.9949 43.0093C18.2375 43.0093 18.4802 42.9268 18.6707 42.7592L22.5088 39.3419C22.9002 38.9946 22.9159 38.4141 22.5428 38.0473C22.1696 37.683 21.5512 37.6684 21.1599 38.0158Z" fill="#40AAD3"/>
</svg>
