<svg width="65" height="65" viewBox="0 0 65 65" fill="none" xmlns="http://www.w3.org/2000/svg">
<path d="M32.499 29.4194C34.952 29.4194 36.9472 27.4244 36.9472 24.9718C36.9472 22.5191 34.952 20.5242 32.499 20.5242C30.0459 20.5242 28.0507 22.5191 28.0507 24.9718C28.0507 27.4244 30.0459 29.4194 32.499 29.4194ZM32.499 22.5766C33.8189 22.5766 34.8945 23.65 34.8945 24.9718C34.8945 26.2935 33.8209 27.3669 32.499 27.3669C31.177 27.3669 30.1034 26.2935 30.1034 24.9718C30.1034 23.65 31.1791 22.5766 32.499 22.5766ZM50.6308 23.4405C49.7358 22.8843 48.5842 22.8577 47.5394 23.3708L44.4726 24.9061C44.4357 18.3343 39.0821 13 32.501 13C26.2566 13 21.1206 17.8071 20.5808 23.913L15.6029 26.4104C13.9976 27.2149 13 28.8326 13 30.6285V47.8912C13 48.9707 13.5439 49.9538 14.4554 50.5203C15.3647 51.0868 16.4855 51.1424 17.4626 50.6621L24.4605 47.142C24.6986 47.0292 24.9182 46.9717 25.1625 46.9717C25.4457 46.9552 25.6592 46.9882 25.8789 47.0724L38.3883 51.75C38.8214 51.9183 39.2443 52 39.6158 52C39.7103 52 39.8006 51.9942 39.8888 51.984C40.4 51.984 40.8844 51.8668 41.4366 51.6062L49.3992 47.604C51.0024 46.7974 52 45.1798 52 43.3859V26.1152C52 24.9577 51.5012 23.9823 50.6308 23.4405ZM32.499 15.0504C37.9695 15.0504 42.4199 19.5021 42.4199 24.9718C42.4199 25.4315 42.3747 25.8751 42.309 26.3102C42.2946 26.3512 42.2947 26.3964 42.2864 26.4374C41.9149 28.6848 40.7263 30.5935 39.1786 32.2354C39.1663 32.2477 39.1581 32.2602 39.1458 32.2725C37.2121 34.3126 34.7426 35.9443 32.6612 37.3194L32.499 37.4281L32.3368 37.3194C30.2553 35.9443 27.7879 34.3126 25.8522 32.2725C25.8399 32.2602 25.8317 32.2477 25.8194 32.2354C23.9431 30.2466 22.576 27.8739 22.576 24.9718C22.578 19.5021 27.0284 15.0504 32.499 15.0504ZM16.5471 48.8232C16.2146 48.9874 15.8471 48.9689 15.5372 48.7781C15.2272 48.5851 15.0486 48.2606 15.0486 47.8891V30.6265C15.0486 29.6105 15.6111 28.697 16.5184 28.2413L20.591 26.1969C20.9051 29.0375 22.2887 31.3895 24.0786 33.3599V45.1082C23.9062 45.1636 23.7338 45.213 23.5573 45.2951L16.5471 48.8232ZM26.6097 45.1533C26.4557 45.0937 26.2956 45.0629 26.1355 45.026V35.3466C27.8392 36.8059 29.6641 38.0151 31.2057 39.0331L31.9303 39.5131C32.1028 39.628 32.3019 39.6855 32.499 39.6855C32.696 39.6855 32.8952 39.628 33.0676 39.5131L33.7922 39.0331C35.3338 38.0151 37.1587 36.8039 38.8625 35.3466V49.7361L26.6097 45.1533ZM49.9473 43.3859C49.9473 44.3998 49.3848 45.3134 48.4775 45.7711L40.9152 49.5723V33.3644C42.463 31.6609 43.7028 29.6717 44.214 27.3299L48.4487 25.2118C48.8367 25.0189 49.2596 25.0087 49.5449 25.1852C49.8774 25.3925 49.9473 25.8073 49.9473 26.1173V43.3859Z" fill="#FFFFFF"/>
</svg>
