<svg width="65" height="65" viewBox="0 0 65 65" fill="none" xmlns="http://www.w3.org/2000/svg">
<path d="M30.5833 42.0833C30.5833 42.6123 30.154 43.0417 29.625 43.0417H19.0833C14.6942 43.0417 12.375 40.7225 12.375 36.3333V21C12.375 16.6108 14.6942 14.2917 19.0833 14.2917H42.0833C46.4725 14.2917 48.7917 16.6108 48.7917 21C48.7917 21.529 48.3623 21.9583 47.8333 21.9583C47.3043 21.9583 46.875 21.529 46.875 21C46.875 17.6861 45.3973 16.2083 42.0833 16.2083H19.0833C15.7694 16.2083 14.2917 17.6861 14.2917 21V36.3333C14.2917 39.6472 15.7694 41.125 19.0833 41.125H29.625C30.154 41.125 30.5833 41.5543 30.5833 42.0833ZM32.5 23.875H21C20.471 23.875 20.0417 24.3043 20.0417 24.8333C20.0417 25.3623 20.471 25.7917 21 25.7917H32.5C33.029 25.7917 33.4583 25.3623 33.4583 24.8333C33.4583 24.3043 33.029 23.875 32.5 23.875ZM26.75 33.4583C27.279 33.4583 27.7083 33.029 27.7083 32.5C27.7083 31.971 27.279 31.5417 26.75 31.5417H21C20.471 31.5417 20.0417 31.971 20.0417 32.5C20.0417 33.029 20.471 33.4583 21 33.4583H26.75ZM51.5342 37.6903L51.1262 38.0986C51.0476 38.1772 51.0036 38.2864 51.0036 38.3995V38.9725C51.0036 40.5384 50.0297 41.8762 48.6592 42.4263L50.6718 49.4894C50.7734 49.842 50.6642 50.2197 50.392 50.465C50.2118 50.626 49.9819 50.7102 49.75 50.7102C49.6312 50.7102 49.5084 50.6872 49.3934 50.6412L45.8535 49.2229C44.2454 48.5827 42.4744 48.5846 40.8625 49.2229L37.3263 50.6412C36.987 50.7792 36.6018 50.7084 36.3277 50.465C36.0556 50.2197 35.9482 49.842 36.0479 49.4894L38.0624 42.4263C36.6919 41.8762 35.7199 40.5384 35.7199 38.9725V38.3995C35.7199 38.2864 35.6759 38.181 35.5973 38.1005L35.1874 37.6922C33.7345 36.2413 33.7345 33.878 35.1874 32.4233L35.5954 32.015C35.6759 31.9345 35.7199 31.8272 35.7199 31.7141V31.1411C35.7199 29.0864 37.3914 27.4152 39.4442 27.4152H40.0174C40.1324 27.4152 40.2378 27.371 40.3183 27.2905L40.7244 26.8841C42.1313 25.4753 44.5866 25.4753 45.9934 26.8841L46.4014 27.2905C46.4819 27.3729 46.5892 27.4152 46.7023 27.4152H47.2756C49.3283 27.4152 50.9999 29.0864 50.9999 31.1411V31.7141C50.9999 31.8272 51.0457 31.9365 51.1243 32.019L51.5305 32.4214C52.9852 33.8742 52.9852 36.2375 51.5342 37.6903ZM48.2914 48.1342L46.7426 42.6966H46.7042C46.5892 42.6966 46.4838 42.7408 46.4052 42.8194L45.9953 43.2277C45.2919 43.9311 44.3584 44.3182 43.3617 44.3182C42.3651 44.3182 41.4297 43.9311 40.7263 43.2277L40.3201 42.8194C40.2396 42.7408 40.1323 42.6966 40.0193 42.6966H39.979L38.4302 48.1342L40.155 47.4424C42.2211 46.6163 44.5005 46.6182 46.5666 47.4424L48.2914 48.1342ZM50.1796 33.7765L49.7711 33.3701C49.3302 32.9235 49.0869 32.3351 49.0869 31.7122V31.1392C49.0869 30.1407 48.276 29.3297 47.2793 29.3297H46.7065C46.0779 29.3297 45.4876 29.0865 45.0486 28.6419L44.642 28.2392C43.9578 27.555 42.7676 27.555 42.0833 28.2392L41.6772 28.6456C41.2363 29.0884 40.646 29.3318 40.0211 29.3318H39.4479C38.4493 29.3318 37.6403 30.1425 37.6403 31.1411V31.7141C37.6403 32.3389 37.397 32.9274 36.9543 33.3701L36.5462 33.7784C35.8428 34.4837 35.8409 35.6299 36.5462 36.3352L36.9543 36.7435C37.3951 37.1843 37.6403 37.7728 37.6403 38.3995V38.9725C37.6403 39.9711 38.4513 40.782 39.4479 40.782H40.0211C40.646 40.782 41.2345 41.0253 41.6753 41.4661L42.0833 41.8744C42.7676 42.5548 43.9578 42.5567 44.642 41.8744L45.0505 41.4661C45.4894 41.0253 46.0798 40.782 46.7065 40.782H47.2793C48.2779 40.782 49.0869 39.9711 49.0869 38.9725V38.3995C49.0869 37.7843 49.336 37.1804 49.7692 36.7453L50.1796 36.3371C50.8849 35.6298 50.883 34.4819 50.1796 33.7765ZM47.5133 35.0549C47.5133 37.3453 45.6502 39.2083 43.3617 39.2083C41.0713 39.2083 39.2083 37.3453 39.2083 35.0549C39.2083 32.7645 41.0713 30.9015 43.3617 30.9015C45.6502 30.9034 47.5133 32.7664 47.5133 35.0549ZM45.5966 35.0549C45.5966 33.8206 44.5942 32.8182 43.3617 32.8182C42.1274 32.8182 41.125 33.8206 41.125 35.0549C41.125 36.2873 42.1274 37.2917 43.3617 37.2917C44.5942 37.2917 45.5966 36.2893 45.5966 35.0549Z" fill="#40AAD3"/>
</svg>
