<svg width="65" height="65" viewBox="0 0 65 65" fill="none" xmlns="http://www.w3.org/2000/svg">
<path d="M54.0707 49.7196C52.5473 49.7196 51.1306 49.0395 50.1837 47.8529C49.9549 47.566 49.463 47.566 49.2342 47.8529C49.0587 48.0729 48.8624 48.2691 48.657 48.4531L51.1389 38.9126C51.2141 38.6234 51.0601 38.3243 50.7788 38.2133L45.9293 36.2963V28.6429C45.9293 27.1067 44.6837 25.851 43.1347 25.8039L41.3397 25.2978V20.8276C41.3397 19.7346 40.4612 18.8401 39.363 18.7925L38.362 18.5103C37.6523 15.9293 35.2481 14.0909 32.5 14.0909C29.7527 14.0909 27.348 15.9295 26.6384 18.5102L25.637 18.7925C24.5389 18.8401 23.6604 19.7346 23.6604 20.8276V25.2978L21.8654 25.8039C20.3163 25.851 19.0707 27.1067 19.0707 28.6429V36.2963L14.2212 38.2133C13.9399 38.3243 13.786 38.6234 13.8612 38.9126L16.3431 48.4531C16.1377 48.2691 15.9413 48.0729 15.7659 47.8529C15.537 47.566 15.0452 47.566 14.8163 47.8529C13.8697 49.0395 12.4531 49.7196 10.9294 49.7196C10.5959 49.7196 10.3254 49.9856 10.3254 50.3144C10.3254 50.6431 10.5959 50.9091 10.9294 50.9091C12.5855 50.9091 14.1398 50.2638 15.2911 49.1179C16.4424 50.2638 17.9967 50.9091 19.6528 50.9091C21.2446 50.9091 22.758 50.3051 23.8981 49.2335C25.0378 50.3051 26.5512 50.9091 28.143 50.9091C29.7994 50.9091 31.3535 50.2638 32.5047 49.1179C33.6563 50.2638 35.2104 50.9091 36.8665 50.9091C38.4559 50.9091 39.9675 50.3068 41.107 49.2375C42.2465 50.3068 43.7581 50.9091 45.3472 50.9091C47.0036 50.9091 48.5577 50.2638 49.709 49.1179C50.8605 50.2638 52.4146 50.9091 54.0707 50.9091C54.4042 50.9091 54.6746 50.6431 54.6746 50.3144C54.6746 49.9856 54.4042 49.7196 54.0707 49.7196ZM40.5923 26.3243L42.8787 26.969C42.933 26.9847 42.9887 26.9923 43.045 26.9923C43.9695 26.9923 44.7215 27.7328 44.7215 28.6429V35.8188L33.104 31.2263V24.2127L40.4807 26.2928C40.5156 26.3091 40.5541 26.3149 40.5923 26.3243ZM32.5 15.2804C34.4394 15.2804 36.1641 16.4238 36.937 18.1087L32.6663 16.9049C32.5572 16.8735 32.4428 16.8735 32.3337 16.9049L28.0628 18.1088C28.8358 16.424 30.5608 15.2804 32.5 15.2804ZM24.8683 20.8276C24.8683 20.3607 25.2543 19.9802 25.7288 19.9802C25.7851 19.9802 25.8408 19.9727 25.8951 19.957L31.8961 18.2652V20.6296C31.8961 20.9583 32.1665 21.2243 32.5 21.2243C32.8335 21.2243 33.104 20.9583 33.104 20.6296V18.2652L37.6524 19.5475C37.6599 19.5503 37.6677 19.5515 37.6753 19.554L39.105 19.957C39.1592 19.9727 39.215 19.9802 39.2713 19.9802C39.7458 19.9802 40.1318 20.3607 40.1318 20.8276V24.9572L32.6663 22.8523C32.5578 22.8209 32.4422 22.8209 32.3337 22.8523L24.8683 24.9572V20.8276ZM20.2786 28.6429C20.2786 27.7328 21.0306 26.9923 21.955 26.9923C22.0114 26.9923 22.0671 26.9847 22.1214 26.969L24.4078 26.3243C24.4459 26.3149 24.4845 26.3091 24.5194 26.2928L31.8961 24.2127V31.2263L20.2786 35.8188V28.6429ZM45.3472 49.7196C43.8893 49.7196 42.5121 49.0883 41.5685 47.9877C41.3391 47.7193 40.8749 47.7193 40.6455 47.9877C39.7018 49.0883 38.3247 49.7196 36.8665 49.7196C35.3431 49.7196 33.9264 49.0395 32.9795 47.8529C32.7507 47.566 32.2588 47.5666 32.03 47.8529C31.0834 49.0395 29.6667 49.7196 28.143 49.7196C26.6824 49.7196 25.3035 49.0865 24.3602 47.983C24.2455 47.8483 24.0762 47.771 23.8981 47.771C23.72 47.771 23.5507 47.8483 23.436 47.9824C22.4923 49.0865 21.1134 49.7196 19.6528 49.7196C19.0163 49.7196 18.4011 49.5945 17.8284 49.3698L15.1628 39.1229L19.9078 37.247C19.9089 37.2466 19.91 37.2462 19.9111 37.2457L32.5 32.2688L45.0889 37.2457C45.09 37.2462 45.0911 37.2466 45.0923 37.247L49.8372 39.1229L47.1716 49.3698C46.5989 49.5945 45.9838 49.7196 45.3472 49.7196Z" fill="#FFFFFF" stroke="#FFFFFF" stroke-width="0.836777"/>
</svg>
